<svg width="349" height="244" viewBox="0 0 349 244" fill="none" xmlns="http://www.w3.org/2000/svg">
<path d="M280.686 203.195C280.686 203.195 330.644 180.238 329.482 133.922C328.32 87.6063 280.973 66.0688 248.829 94.6643C216.686 123.259 195.884 99.2804 179.231 75.1154C162.578 50.9508 125.429 20.4543 76.6895 34.5461C25.6317 49.3079 9.92016 102.735 14.9775 138.388C18.6102 163.997 31.896 185.71 50.0006 202.393C50.5893 202.935 51.1921 203.472 51.8089 204L280.686 203.195Z" fill="#E2F5ED"/>
<path d="M60.0535 104.42H35.2593V137.387H60.0535V104.42Z" fill="#003366"/>
<path d="M230.9 87.3452H187.679V132.005H230.9V87.3452Z" fill="#003366"/>
<path d="M116.198 92.9714H91.4038V125.938H116.198V92.9714Z" fill="#003366"/>
<path d="M163.109 110.814H138.315V143.78H163.109V110.814Z" fill="#003366"/>
<path d="M334.811 167.14H10.4648V123.884H334.811V167.14Z" fill="#003366"/>
<path d="M35.2591 90.9167H10.4648V123.884H35.2591V90.9167Z" fill="#003366"/>
<path d="M141.841 60.7978C141.841 70.0195 134.606 77.4947 125.682 77.4947C116.757 77.4947 109.522 70.0195 109.522 60.7978C109.522 51.5762 116.757 44.101 125.682 44.101C134.606 44.101 141.841 51.5762 141.841 60.7978Z" fill="#E9EDFD"/>
<path d="M129.422 53.145C129.422 55.2792 127.748 57.0097 125.682 57.0097C123.617 57.0097 121.942 55.2792 121.942 53.145C121.942 51.0108 123.617 49.2804 125.682 49.2804C127.748 49.2804 129.422 51.0108 129.422 53.145Z" fill="#E2F5ED"/>
<path d="M144.565 167.14H106.799V59.4326H144.565V167.14Z" fill="#8AD4B5"/>
<path d="M119.423 82.4135H111.914V67.1469H119.423V82.4135Z" fill="#003366"/>
<path d="M138.315 82.4135H130.807V67.1469H138.315V82.4135Z" fill="#003366"/>
<path d="M119.423 105.688H111.914V90.4219H119.423V105.688Z" fill="#003366"/>
<path d="M138.315 105.688H130.807V90.4219H138.315V105.688Z" fill="#003366"/>
<path d="M119.423 128.964H111.914V113.697H119.423V128.964Z" fill="#003366"/>
<path d="M138.315 128.964H130.807V113.697H138.315V128.964Z" fill="#003366"/>
<path d="M119.423 152.239H111.914V136.972H119.423V152.239Z" fill="#003366"/>
<path d="M138.315 152.239H130.807V136.972H138.315V152.239Z" fill="#003366"/>
<path d="M194.53 167.14H153.457V34.5381H194.53V167.14Z" fill="#8AD4B5"/>
<path d="M163.108 49.7562H157.507V43.9694H163.108V49.7562Z" fill="#003366"/>
<path d="M176.794 49.7562H171.193V43.9694H176.794V49.7562Z" fill="#003366"/>
<path d="M190.479 49.7562H184.879V43.9694H190.479V49.7562Z" fill="#003366"/>
<path d="M163.108 59.9779H157.507V54.1912H163.108V59.9779Z" fill="#003366"/>
<path d="M176.794 59.9779H171.193V54.1912H176.794V59.9779Z" fill="#003366"/>
<path d="M190.479 59.9779H184.879V54.1912H190.479V59.9779Z" fill="#003366"/>
<path d="M163.108 70.1996H157.507V64.4129H163.108V70.1996Z" fill="#003366"/>
<path d="M176.794 70.1996H171.193V64.4129H176.794V70.1996Z" fill="#003366"/>
<path d="M190.479 70.1996H184.879V64.4129H190.479V70.1996Z" fill="#003366"/>
<path d="M163.108 80.4218H157.507V74.6346H163.108V80.4218Z" fill="#003366"/>
<path d="M176.794 80.4218H171.193V74.6346H176.794V80.4218Z" fill="#003366"/>
<path d="M190.479 80.4218H184.879V74.6346H190.479V80.4218Z" fill="#003366"/>
<path d="M163.108 90.6431H157.507V84.8563H163.108V90.6431Z" fill="#003366"/>
<path d="M176.794 90.6431H171.193V84.8563H176.794V90.6431Z" fill="#003366"/>
<path d="M190.479 90.6431H184.879V84.8563H190.479V90.6431Z" fill="#003366"/>
<path d="M163.108 100.865H157.507V95.0775H163.108V100.865Z" fill="#003366"/>
<path d="M176.794 100.865H171.193V95.0775H176.794V100.865Z" fill="#003366"/>
<path d="M190.479 100.865H184.879V95.0775H190.479V100.865Z" fill="#003366"/>
<path d="M163.108 111.086H157.507V105.3H163.108V111.086Z" fill="#003366"/>
<path d="M176.794 111.086H171.193V105.3H176.794V111.086Z" fill="#003366"/>
<path d="M190.479 111.086H184.879V105.3H190.479V111.086Z" fill="#003366"/>
<path d="M163.108 121.308H157.507V115.521H163.108V121.308Z" fill="#003366"/>
<path d="M176.794 121.308H171.193V115.521H176.794V121.308Z" fill="#003366"/>
<path d="M190.479 121.308H184.879V115.521H190.479V121.308Z" fill="#003366"/>
<path d="M163.108 131.53H157.507V125.743H163.108V131.53Z" fill="#003366"/>
<path d="M176.794 131.53H171.193V125.743H176.794V131.53Z" fill="#003366"/>
<path d="M190.479 131.53H184.879V125.743H190.479V131.53Z" fill="#003366"/>
<path d="M163.108 141.752H157.507V135.965H163.108V141.752Z" fill="#003366"/>
<path d="M176.794 141.752H171.193V135.965H176.794V141.752Z" fill="#003366"/>
<path d="M190.479 141.752H184.879V135.965H190.479V141.752Z" fill="#003366"/>
<path d="M163.108 151.973H157.507V146.187H163.108V151.973Z" fill="#003366"/>
<path d="M176.794 151.973H171.193V146.187H176.794V151.973Z" fill="#003366"/>
<path d="M190.479 151.973H184.879V146.187H190.479V151.973Z" fill="#003366"/>
<path d="M325.475 203.772H284.402V71.1696H325.475V203.772Z" fill="#8AD4B5"/>
<path d="M294.054 86.3877H288.453V80.6009H294.054V86.3877Z" fill="#003366"/>
<path d="M307.739 86.3877H302.139V80.6009H307.739V86.3877Z" fill="#003366"/>
<path d="M321.425 86.3877H315.824V80.6009H321.425V86.3877Z" fill="#003366"/>
<path d="M294.054 96.6099H288.453V90.8232H294.054V96.6099Z" fill="#003366"/>
<path d="M307.739 96.6099H302.139V90.8232H307.739V96.6099Z" fill="#003366"/>
<path d="M321.425 96.6099H315.824V90.8232H321.425V96.6099Z" fill="#003366"/>
<path d="M294.054 106.832H288.453V101.044H294.054V106.832Z" fill="#003366"/>
<path d="M307.739 106.832H302.139V101.044H307.739V106.832Z" fill="#003366"/>
<path d="M321.425 106.832H315.824V101.044H321.425V106.832Z" fill="#003366"/>
<path d="M294.054 117.053H288.453V111.266H294.054V117.053Z" fill="#003366"/>
<path d="M307.739 117.053H302.139V111.266H307.739V117.053Z" fill="#003366"/>
<path d="M321.425 117.053H315.824V111.266H321.425V117.053Z" fill="#003366"/>
<path d="M294.054 127.275H288.453V121.488H294.054V127.275Z" fill="#003366"/>
<path d="M307.739 127.275H302.139V121.488H307.739V127.275Z" fill="#003366"/>
<path d="M321.425 127.275H315.824V121.488H321.425V127.275Z" fill="#003366"/>
<path d="M294.054 137.497H288.453V131.71H294.054V137.497Z" fill="#003366"/>
<path d="M307.739 137.497H302.139V131.71H307.739V137.497Z" fill="#003366"/>
<path d="M321.425 137.497H315.824V131.71H321.425V137.497Z" fill="#003366"/>
<path d="M294.054 147.718H288.453V141.931H294.054V147.718Z" fill="#003366"/>
<path d="M307.739 147.718H302.139V141.931H307.739V147.718Z" fill="#003366"/>
<path d="M321.425 147.718H315.824V141.931H321.425V147.718Z" fill="#003366"/>
<path d="M294.054 157.94H288.453V152.153H294.054V157.94Z" fill="#003366"/>
<path d="M307.739 157.94H302.139V152.153H307.739V157.94Z" fill="#003366"/>
<path d="M321.425 157.94H315.824V152.153H321.425V157.94Z" fill="#003366"/>
<path d="M294.054 168.161H288.453V162.375H294.054V168.161Z" fill="#003366"/>
<path d="M307.739 168.161H302.139V162.375H307.739V168.161Z" fill="#003366"/>
<path d="M321.425 168.161H315.824V162.375H321.425V168.161Z" fill="#003366"/>
<path d="M97.8133 167.14H47.0127V34.5381H97.8133V167.14Z" fill="#8AD4B5"/>
<path d="M55.7726 124.443H52.3442V55.8556H55.7726V124.443Z" fill="#003366"/>
<path d="M64.9499 124.443H61.522V55.8556H64.9499V124.443Z" fill="#003366"/>
<path d="M74.1271 124.443H70.6987V55.8556H74.1271V124.443Z" fill="#003366"/>
<path d="M83.3049 124.443H79.8765V55.8556H83.3049V124.443Z" fill="#003366"/>
<path d="M92.4821 124.443H89.0537V55.8556H92.4821V124.443Z" fill="#003366"/>
<path d="M97.8133 49.2114H47.0127V41.8748H97.8133V49.2114Z" fill="#E9EDFD"/>
<path d="M6.20841 91.1338C6.20841 92.6407 5.04243 93.8624 3.6043 93.8624C2.16598 93.8624 1 92.6407 1 91.1338C1 89.627 2.16598 88.4053 3.6043 88.4053C5.04243 88.4053 6.20841 89.627 6.20841 91.1338V91.1338Z" stroke="#B9E5D1" stroke-width="1.70287" stroke-miterlimit="10"/>
<path d="M315.479 32.5441C315.479 34.0509 314.312 35.2726 312.874 35.2726C311.436 35.2726 310.271 34.0509 310.271 32.5441C310.271 31.0372 311.436 29.8155 312.874 29.8155C314.312 29.8155 315.479 31.0372 315.479 32.5441V32.5441Z" stroke="#B9E5D1" stroke-width="1.70287" stroke-miterlimit="10"/>
<path d="M193.018 61.0335C193.018 62.5958 191.81 63.8625 190.318 63.8625C188.828 63.8625 187.619 62.5958 187.619 61.0335C187.619 59.4711 188.828 58.2049 190.318 58.2049C191.81 58.2049 193.018 59.4711 193.018 61.0335Z" stroke="#B9E5D1" stroke-width="1.70287" stroke-miterlimit="10"/>
<path d="M38.1021 23.6731H57.0554" stroke="#B9E5D1" stroke-width="1.33136" stroke-miterlimit="10"/>
<path d="M318.303 83.9849H334.747" stroke="#B9E5D1" stroke-width="1.33136" stroke-miterlimit="10"/>
<path d="M180.319 11H208.962" stroke="#B9E5D1" stroke-width="1.33136" stroke-miterlimit="10"/>
<path d="M264.81 203.723H319.086C326.014 203.723 331.63 197.92 331.63 190.762V41.504C331.63 34.3455 326.014 28.5423 319.086 28.5423H264.81C257.882 28.5423 252.266 34.3455 252.266 41.504V190.762C252.266 197.92 257.882 203.723 264.81 203.723Z" fill="#008955"/>
<path d="M258.373 203.723H312.649C319.577 203.723 325.193 197.92 325.193 190.762V41.504C325.193 34.3455 319.577 28.5423 312.649 28.5423H258.373C251.445 28.5423 245.829 34.3455 245.829 41.504V190.762C245.829 197.92 251.445 203.723 258.373 203.723Z" fill="#007848"/>
<path d="M262.009 203.487H316.434C321.203 203.487 325.069 199.492 325.069 194.564V45.9043C325.069 40.976 321.203 36.9808 316.434 36.9808H262.009C257.24 36.9808 253.373 40.976 253.373 45.9043V194.564C253.373 199.492 257.24 203.487 262.009 203.487Z" fill="white"/>
<path d="M278.158 42.3944H304.179C305.467 42.3944 306.511 41.3153 306.511 39.9841V36.0529H275.826V39.9841C275.826 41.3153 276.87 42.3944 278.158 42.3944Z" fill="#007848"/>
<path d="M285.705 39.7644H297.734" stroke="#312220" stroke-width="1.1578" stroke-miterlimit="10" stroke-linecap="round" stroke-linejoin="round"/>
<path d="M316.241 109.356H252.475V64.8173H316.241V109.356Z" fill="#E2F5ED"/>
<path d="M327.557 71.0253L248.154 132.969" stroke="white" stroke-width="6.83467" stroke-miterlimit="10"/>
<path d="M346.452 81.253L267.049 143.197" stroke="white" stroke-width="6.83467" stroke-miterlimit="10"/>
<path d="M308.294 61.1058L238.104 115.862" stroke="white" stroke-width="6.83467" stroke-miterlimit="10"/>
<path d="M264.158 62.474L293.576 107.166C294.573 108.68 294.313 110.727 292.971 111.924L283.528 120.346C279.223 124.187 278.628 128.369 282.182 132.958L297.422 155.124" stroke="white" stroke-width="6.83467" stroke-miterlimit="10"/>
<path d="M274.806 58.7242C274.806 52.4292 268.375 47.6865 261.931 51.1274C260.93 51.6622 259.658 52.954 259.112 53.9735C257.426 57.1258 257.578 60.2345 258.79 62.6909H258.781L258.849 62.819C258.88 62.8795 258.913 62.9385 258.945 62.9981L266.335 76.8053L273.737 62.9756C273.762 62.9295 273.788 62.883 273.812 62.836L273.846 62.7724H273.842C274.455 61.5613 274.806 60.186 274.806 58.7242Z" fill="#008955"/>
<path d="M269.86 58.4882C269.86 60.6299 268.18 62.3659 266.107 62.3659C264.035 62.3659 262.354 60.6299 262.354 58.4882C262.354 56.3465 264.035 54.6106 266.107 54.6106C268.18 54.6106 269.86 56.3465 269.86 58.4882Z" fill="white"/>
<path d="M69.1706 174.931C66.6112 174.931 64.5356 177.072 64.5322 179.716L64.5293 182.116C64.5293 184.761 66.6045 186.905 69.1647 186.905H88.0425C88.0425 186.905 87.9462 180.378 89.62 174.931H69.1706Z" fill="#005932"/>
<path d="M320.352 163.173H304.973C303.26 163.173 301.871 164.608 301.871 166.378V169.386C301.871 171.156 303.26 172.591 304.973 172.591H321.735C321.872 166.267 320.56 163.56 320.352 163.173Z" fill="white"/>
<path d="M146.596 32.6386C146.596 23.3114 137.068 16.2834 127.52 21.3818C126.036 22.1742 124.151 24.0888 123.343 25.5991C120.844 30.2697 121.069 34.8758 122.865 38.5154H122.852L122.953 38.7055C122.999 38.795 123.047 38.8831 123.095 38.9711L134.044 59.4291L145.012 38.9381C145.05 38.8691 145.087 38.801 145.123 38.731L145.174 38.6369H145.167C146.076 36.8419 146.596 34.8043 146.596 32.6386Z" fill="#FF6600"/>
<path d="M83.3542 98.8639C83.3542 100.756 81.5534 102.291 79.3321 102.291C77.1108 102.291 75.3101 100.756 75.3101 98.8639C75.3101 96.9719 77.1108 95.4375 79.3321 95.4375C81.5534 95.4375 83.3542 96.9719 83.3542 98.8639Z" fill="white"/>
<path d="M47.7233 192.36H53.0667L61.9034 196.276L46.709 196.126L47.7233 192.36Z" fill="#101010"/>
<path d="M46.709 198.072L46.7617 196.277L61.9034 196.439L61.8511 198.235L46.709 198.072Z" fill="white"/>
<path d="M56.5405 193.339L54.7529 194.318" stroke="white" stroke-width="1.94209" stroke-miterlimit="10" stroke-linecap="round" stroke-linejoin="round"/>
<path d="M54.7529 193.339H52.9653" stroke="white" stroke-width="1.94209" stroke-miterlimit="10" stroke-linecap="round" stroke-linejoin="round"/>
<path d="M53.8591 185.507H48.0923L47.6025 192.36H53.3693L53.8591 185.507Z" fill="#EBB28B"/>
<path d="M57.4342 142.43L53.8681 190.402H45.8149L47.2064 142.43H57.4342Z" fill="#B9E5D1"/>
<path d="M35.2101 192.36H40.5535L49.3902 196.276L34.1958 196.126L35.2101 192.36Z" fill="#101010"/>
<path d="M34.1958 198.072L34.2482 196.277L49.3902 196.439L49.3375 198.235L34.1958 198.072Z" fill="white"/>
<path d="M44.0273 193.339L42.2397 194.318" stroke="white" stroke-width="1.94209" stroke-miterlimit="10" stroke-linecap="round" stroke-linejoin="round"/>
<path d="M42.2397 193.339H40.4521" stroke="white" stroke-width="1.94209" stroke-miterlimit="10" stroke-linecap="round" stroke-linejoin="round"/>
<path d="M41.3459 185.507H36.063L35.0894 192.36H40.3726L41.3459 185.507Z" fill="#EBB28B"/>
<path d="M40.953 142.43L33.3018 190.402H41.844L52.9651 142.43H40.953Z" fill="#B9E5D1"/>
<path d="M46.709 168.864L50.8419 150.071L53.8593 148.305" stroke="#171717" stroke-width="0.850184" stroke-miterlimit="10" stroke-linecap="round" stroke-linejoin="round"/>
<path d="M39.5586 149.284L44.9213 146.347" stroke="#171717" stroke-width="0.850184" stroke-miterlimit="10" stroke-linecap="round" stroke-linejoin="round"/>
<path d="M58.8668 123.809L67.4096 133.358C68.3543 134.257 68.4132 135.601 67.5494 136.557C66.4601 137.763 64.3715 137.871 63.1183 136.787L53.9372 127.748C52.6783 126.66 52.6374 124.924 53.8438 123.793H53.8442C55.1927 122.529 57.5293 122.537 58.8668 123.809Z" fill="#EBB28B"/>
<path d="M54.7529 119.913C54.7529 119.913 58.8029 120.358 61.9032 125.653L57.1406 130.682L54.7529 119.913Z" fill="#009688"/>
<path d="M61.0093 134.219L72.9356 127.745L75.3099 129.867L66.6636 137.535L61.0093 134.219Z" fill="#EBB28B"/>
<path d="M75.0492 123.829L80.673 125.249C80.673 125.249 80.673 129.019 75.4853 129.701C75.2015 129.738 73.9252 129.315 73.7052 129.146L72.8421 127.017C72.5359 126.668 72.5622 126.18 72.904 125.857L75.0492 123.829Z" fill="#EBB28B"/>
<path d="M74.416 124.654L76.5048 122.186C76.815 121.841 77.3457 121.769 77.6971 122.023C78.0339 122.266 78.089 122.727 77.823 123.079L75.8938 125.787L74.416 124.654Z" fill="#E9B0A0"/>
<path d="M77.0977 126.462L79.4166 124.102C79.7373 123.77 80.2136 123.736 80.4865 124.026C80.7484 124.304 80.7324 124.783 80.4497 125.126L78.237 127.745L77.0977 126.462Z" fill="#E9B0A0"/>
<path d="M76.2036 124.741L78.4431 123.045C78.7734 122.795 79.2747 122.784 79.57 123.021C79.853 123.247 79.8476 123.624 79.5581 123.884L77.4371 125.787L76.2036 124.741Z" fill="#E9B0A0"/>
<path d="M79.8917 118.934L80.6728 118.986V124.287L77.9313 128.724L77.0977 128.654L78.5685 123.08L79.8917 118.934Z" fill="#36438D"/>
<path d="M74.5513 126.279L77.2665 128.523C77.5147 128.794 77.9863 128.791 78.2292 128.516L84.141 122.045C84.2854 121.881 84.283 121.652 84.1353 121.491L81.2871 119.101C81.0804 118.876 80.6885 118.879 80.4865 119.107L74.5446 125.613C74.3707 125.809 74.3734 126.085 74.5513 126.279Z" fill="#050907"/>
<path d="M73.6577 126.279L76.373 128.523C76.6212 128.794 77.0928 128.79 77.3353 128.516L83.2471 122.045C83.3919 121.881 83.3895 121.652 83.2418 121.491L80.3932 119.101C80.1869 118.876 79.7946 118.879 79.593 119.107L73.651 125.613C73.4772 125.809 73.4799 126.085 73.6577 126.279Z" fill="white"/>
<path d="M73.5513 127.745C73.2545 127.615 72.5133 126.925 72.6443 125.88C72.8164 124.504 73.6129 123.462 73.6129 123.462C73.8775 123.019 74.1844 122.805 74.6146 122.858C75.0808 122.916 75.3795 123.359 75.2964 123.667L74.8105 124.627C74.8105 124.627 75.3452 125.845 74.2262 127.691L73.5513 127.745Z" fill="#EBB28B"/>
<g filter="url(#filter0_d_314_404)">
<path d="M46.4829 119.173C46.4829 119.173 43.2978 119.822 41.0269 120.82C39.5972 121.449 39.4387 122.807 39.6185 124.194L40.7725 142.43H57.168L58.3153 124.812C58.4731 122.879 57.1707 120.985 55.0661 120.361C52.7081 119.663 51.2188 118.998 49.9642 118.934L46.4829 119.173Z" fill="#009688"/>
</g>
<path d="M58.3281 129.703V124.808" stroke="#171717" stroke-width="0.850184" stroke-miterlimit="10" stroke-linecap="round" stroke-linejoin="round"/>
<path d="M46.8142 118.934L44.9214 119.475C44.9214 119.475 46.3271 122.294 51.4336 121.817C55.0149 121.482 53.572 119.66 53.572 119.66L51.7903 118.989L46.8142 118.934Z" fill="#EBB28B"/>
<path d="M31.0967 129.703L39.5582 140.309L37.2794 142.43L27.939 134.639L31.0967 129.703Z" fill="#EBB28B"/>
<path d="M47.2332 140.69L43.8267 139.088L44.1612 138.397C44.2831 138.145 44.2075 137.849 43.9772 137.674C43.7392 137.494 43.398 137.489 43.154 137.662L39.799 140.098L37.771 142.366C39.6111 143.823 40.8138 143.805 41.5068 143.523C41.5877 143.548 41.6677 143.575 41.7499 143.597L44.581 144.348C44.8428 144.452 45.1474 144.35 45.2756 144.115C45.3689 143.944 45.4019 143.67 44.8571 143.414L45.4019 143.67C45.679 143.781 46.0007 143.669 46.1299 143.417C46.2517 143.194 46.1023 142.9 45.7824 142.707L46.1994 142.858C46.5014 142.979 46.8572 142.842 46.9705 142.545C47.0682 142.289 46.9216 142.006 46.6592 141.883L46.0572 141.602L46.7721 141.762C47.1012 141.869 47.4683 141.707 47.5762 141.388C47.6689 141.114 47.5096 140.82 47.2332 140.69Z" fill="#EBB28B"/>
<path d="M46.7087 141.451L44.0273 140.472" stroke="#171717" stroke-width="0.552121" stroke-miterlimit="10" stroke-linecap="round" stroke-linejoin="round"/>
<path d="M45.8149 142.43L44.0273 141.451" stroke="#171717" stroke-width="0.552121" stroke-miterlimit="10" stroke-linecap="round" stroke-linejoin="round"/>
<path d="M44.9214 143.409L43.1338 142.43" stroke="#171717" stroke-width="0.552121" stroke-miterlimit="10" stroke-linecap="round" stroke-linejoin="round"/>
<path d="M43.0329 126.854L32.1698 134.822C31.1562 135.693 29.5561 135.827 28.362 135.14C26.8569 134.274 26.5985 132.476 27.8137 131.327L38.0287 122.841C39.2493 121.686 41.3177 121.544 42.7412 122.516C44.3321 123.602 44.4679 125.621 43.0329 126.854Z" fill="#EBB28B"/>
<path d="M43.298 119.913C43.298 119.913 37.8066 120.882 33.3018 126.04L38.076 131.661L44.921 127.234L43.298 119.913Z" fill="#009688"/>
<path d="M40.4521 129.703L44.9211 127.745" stroke="#171717" stroke-width="0.850184" stroke-miterlimit="10" stroke-linecap="round" stroke-linejoin="round"/>
<path d="M55.4911 104.249C55.4911 104.249 57.5917 105.757 55.8489 109.144L52.9653 104.571L55.4911 104.249Z" fill="#008955"/>
<path d="M44.799 104.252C44.799 104.252 42.7617 104.046 42.2992 106.971C41.8367 109.897 44.1456 111.645 46.7087 113.06L44.799 104.252Z" fill="#008955"/>
<path d="M55.6468 108.165C55.6468 111.409 52.8456 114.039 49.3905 114.039C45.9351 114.039 43.1338 111.409 43.1338 108.165C43.1338 104.921 45.9351 102.291 49.3905 102.291C52.8456 102.291 55.6468 104.921 55.6468 108.165Z" fill="#008955"/>
<path d="M53.059 110.435C53.3735 110.947 54.3868 111.223 55.3224 111.051C56.258 110.878 56.7613 110.323 56.4468 109.811C56.1324 109.299 55.119 109.023 54.1834 109.195C53.2478 109.367 52.7445 109.922 53.059 110.435Z" fill="#DD8161"/>
<path d="M51.9749 113.627L52.0717 119.913L46.709 119.138L47.0986 110.123L51.9749 113.627Z" fill="#EBB28B"/>
<path d="M51.9343 116.976L47.6025 114.039L52.0715 114.583L51.9343 116.976Z" fill="#171717"/>
<path d="M54.6932 105.689C54.6932 105.689 56.1257 110.472 55.4789 112.308C54.8322 114.144 53.1265 115.334 50.2783 114.944C50.2783 114.944 46.9937 114.891 46.0229 110.842C44.5614 104.745 51.1603 102.513 54.6932 105.689Z" fill="#EBB28B"/>
<path d="M47.5672 111.102C47.5672 111.102 49.7794 107.11 47.3767 106.332C46.656 106.098 46.2334 105.98 45.8928 107.981C45.5518 109.981 46.4411 110.308 46.4411 110.308L47.5672 111.102Z" fill="#008955"/>
<path d="M44.1209 111.08C44.4357 111.849 45.4488 112.262 46.3844 112.004C47.32 111.745 47.8233 110.913 47.5089 110.145C47.1945 109.376 46.1811 108.962 45.2454 109.221C44.3101 109.479 43.8065 110.312 44.1209 111.08Z" fill="#EBB28B"/>
<path d="M44.9214 110.174C44.9214 110.174 46.2945 109.794 46.709 111.102" stroke="#171717" stroke-width="0.525888" stroke-miterlimit="10" stroke-linecap="round" stroke-linejoin="round"/>
<path d="M53.8589 110.123V110.926C53.8589 110.986 53.8589 111.044 53.8589 111.058V111.102" stroke="#1E0B07" stroke-width="0.497083" stroke-miterlimit="10" stroke-linecap="round" stroke-linejoin="round"/>
<path d="M51.1785 109.604C51.1639 109.874 51.3517 110.106 51.5979 110.122C51.8444 110.138 52.0561 109.933 52.0707 109.663C52.0857 109.393 51.8979 109.161 51.6514 109.145C51.4052 109.129 51.1935 109.334 51.1785 109.604Z" fill="#171717"/>
<path d="M54.7538 109.604C54.7388 109.874 54.9268 110.106 55.1732 110.122C55.4196 110.138 55.6314 109.932 55.6459 109.663C55.6608 109.393 55.4729 109.161 55.2264 109.145C54.98 109.129 54.7687 109.334 54.7538 109.604Z" fill="#171717"/>
<path d="M52.0715 107.425L49.3901 108.165C49.3901 108.165 49.9862 107.458 50.7599 107.248C51.5329 107.038 52.0715 107.425 52.0715 107.425Z" fill="#171717"/>
<path d="M53.8589 107.576L55.6465 108.165C55.6465 108.165 55.3394 107.384 54.8234 107.218C54.3074 107.053 53.8589 107.576 53.8589 107.576Z" fill="#171717"/>
<path d="M46.6566 105.561C46.6566 105.561 48.3407 106.635 52.5095 106.013C56.6781 105.391 56.8425 103.3 56.3404 102.565C56.3404 102.565 54.8064 103.447 52.2788 102.965C50.8692 102.696 47.7205 101.715 45.8299 102.766C45.1784 103.128 44.7997 103.728 44.9568 104.32C45.0782 104.777 45.4912 105.3 46.6566 105.561Z" fill="#008955"/>
<path d="M68.3594 175.236H55.7856V157.165C55.7856 155.358 57.9684 153.894 60.661 153.894H63.4844C66.177 153.894 68.3594 155.358 68.3594 157.165V175.236Z" stroke="#101010" stroke-width="3.82461" stroke-miterlimit="10"/>
<path d="M58.48 198.433C58.48 199.457 57.2737 200.288 55.7857 200.288C54.2977 200.288 53.0913 199.457 53.0913 198.433C53.0913 197.408 54.2977 196.577 55.7857 196.577C57.2737 196.577 58.48 197.408 58.48 198.433Z" fill="#101010"/>
<path d="M71.9519 198.433C71.9519 199.457 70.5446 200.288 68.8083 200.288C67.0724 200.288 65.665 199.457 65.665 198.433C65.665 197.408 67.0724 196.577 68.8083 196.577C70.5446 196.577 71.9519 197.408 71.9519 198.433Z" fill="#101010"/>
<path d="M72.1387 197.505H52.0056C49.1329 197.505 46.8042 195.995 46.8042 194.132V172.113C46.8042 170.25 49.1329 168.74 52.0056 168.74H72.1387C75.0117 168.74 77.3404 170.25 77.3404 172.113V194.132C77.3404 195.995 75.0117 197.505 72.1387 197.505Z" fill="#009688"/>
<path d="M53.091 193.793H52.1929V173.38H53.091V193.793Z" stroke="#171717" stroke-width="0.817204" stroke-miterlimit="10" stroke-linecap="round" stroke-linejoin="round"/>
<path d="M59.3781 193.793H58.48V173.38H59.3781V193.793Z" stroke="#171717" stroke-width="0.817204" stroke-miterlimit="10" stroke-linecap="round" stroke-linejoin="round"/>
<path d="M65.6649 193.793H63.8687V173.38H65.6649V193.793Z" stroke="#171717" stroke-width="0.817204" stroke-miterlimit="10" stroke-linecap="round" stroke-linejoin="round"/>
<path d="M71.0534 193.793H70.1553V173.38H71.0534V193.793Z" stroke="#171717" stroke-width="0.817204" stroke-miterlimit="10" stroke-linecap="round" stroke-linejoin="round"/>
<path d="M27.9438 200.288H293.788" stroke="black" stroke-width="1.30461" stroke-miterlimit="10" stroke-linecap="round" stroke-linejoin="round"/>
<g clip-path="url(#clip0_314_404)">
<path d="M263.347 150.504L248.723 123.176C247.771 121.397 246.01 120.301 244.105 120.301H216.136C213.192 120.301 210.805 122.874 210.805 126.048V176.743C210.805 179.916 213.192 182.489 216.136 182.489C219.081 182.489 221.468 179.916 221.468 176.743V176.699L253.399 176.437C253.421 179.59 255.797 182.139 258.728 182.139C261.673 182.139 264.06 179.566 264.06 176.393V153.376C264.06 152.368 263.814 151.377 263.347 150.504Z" fill="#A2B3BF"/>
<path d="M237.479 120.301H216.136C213.192 120.301 210.805 122.874 210.805 126.048V176.743C210.805 179.916 213.192 182.489 216.136 182.489C219.081 182.489 221.468 179.916 221.468 176.743V176.699L237.409 176.437L237.479 120.301Z" fill="#C9D2D9"/>
<path d="M263.347 150.504L248.723 123.176C247.771 121.397 246.01 120.301 244.105 120.301H216.136C213.192 120.301 210.805 122.874 210.805 126.048V151.22H263.669C263.577 150.975 263.47 150.735 263.347 150.504Z" fill="#BDDEFF"/>
<path d="M237.432 120.301H216.136C213.192 120.301 210.805 122.874 210.805 126.048V151.22H237.432V120.301Z" fill="#D7EBFF"/>
<path d="M216.136 106.9H109.385C106.44 106.9 104.053 109.473 104.053 112.647V180.253C104.053 183.427 106.44 186 109.385 186C112.329 186 114.716 183.427 114.716 180.253H210.805C210.805 183.427 213.192 186 216.136 186C219.081 186 221.468 183.427 221.468 180.253V112.646C221.468 109.473 219.081 106.9 216.136 106.9Z" fill="#FF6600"/>
<path d="M162.76 106.9H109.385C106.44 106.9 104.053 109.473 104.053 112.647V180.253C104.053 183.427 106.44 186 109.385 186C112.329 186 114.716 183.427 114.716 180.253H162.761L162.76 106.9Z" fill="#FF6600"/>
<path d="M261.668 186H105.332C102.387 186 100 183.427 100 180.253C100 177.079 102.387 174.506 105.332 174.506H261.669C264.613 174.506 267 177.079 267 180.253C267 183.426 264.613 186 261.668 186Z" fill="#7A4126"/>
<path d="M162.76 186H105.332C102.387 186 100 183.427 100 180.253C100 177.079 102.387 174.506 105.332 174.506H162.76V186Z" fill="#995D3D"/>
<path d="M139.371 201.1C129.674 201.1 121.785 192.597 121.785 182.145C121.785 171.693 129.674 163.19 139.371 163.19C149.068 163.19 156.958 171.693 156.958 182.145C156.957 192.597 149.068 201.1 139.371 201.1Z" fill="#212A2D"/>
<path d="M139.371 201.1C129.674 201.1 121.785 192.597 121.785 182.145C121.785 171.693 129.674 163.19 139.371 163.19V201.1Z" fill="#2E373A"/>
<path d="M139.371 189.783C143.285 189.783 146.458 186.364 146.458 182.145C146.458 177.926 143.285 174.507 139.371 174.507C135.458 174.507 132.285 177.926 132.285 182.145C132.285 186.364 135.458 189.783 139.371 189.783Z" fill="#A2B3BF"/>
<path d="M139.37 189.783C135.456 189.783 132.284 186.363 132.284 182.145C132.284 177.926 135.457 174.507 139.37 174.507V189.783Z" fill="#C9D2D9"/>
<path d="M237.479 201.1C227.782 201.1 219.893 192.597 219.893 182.145C219.893 171.693 227.782 163.19 237.479 163.19C247.176 163.19 255.065 171.693 255.065 182.145C255.065 192.597 247.176 201.1 237.479 201.1Z" fill="#212A2D"/>
<path d="M237.479 201.1C227.782 201.1 219.893 192.597 219.893 182.145C219.893 171.693 227.782 163.19 237.479 163.19V201.1Z" fill="#2E373A"/>
<path d="M237.478 189.783C241.392 189.783 244.565 186.364 244.565 182.145C244.565 177.926 241.392 174.507 237.478 174.507C233.564 174.507 230.392 177.926 230.392 182.145C230.392 186.364 233.564 189.783 237.478 189.783Z" fill="#A2B3BF"/>
<path d="M237.479 189.783C233.565 189.783 230.393 186.363 230.393 182.145C230.393 177.926 233.566 174.507 237.479 174.507V189.783Z" fill="#C9D2D9"/>
</g>
<g clip-path="url(#clip1_314_404)">
<path d="M184.279 41.7107C184.237 41.6569 184.196 41.6032 184.154 41.5496C184.041 41.4136 183.957 41.2483 183.91 41.0687C183.843 40.7715 184.177 40.2529 184.325 40.0142C184.455 39.8022 185.478 39.5038 186.617 39.7338C190.635 40.5758 194.626 41.6566 198.573 42.9721L198.704 43.0278C195.134 44.1279 191.299 45.3018 187.714 46.3757C186.551 44.7664 185.425 43.1903 184.279 41.7107Z" fill="#009688"/>
<path d="M196.119 61.0373L196.723 60.7258C196.92 61.4036 197.118 62.0866 197.314 62.7631C197.344 62.862 197.373 62.9624 197.41 63.0586C197.027 63.0808 196.642 62.9617 196.307 62.718C195.916 62.3793 195.617 61.9117 195.452 61.3796L196.119 61.0373Z" fill="#009688"/>
<path d="M186.583 58.9401C181.653 59.5352 176.175 60.3838 170.484 60.6497C166.25 60.8476 162.075 61.0965 157.831 60.4802C156.809 60.3319 155.907 60.0661 155.192 59.325C154.628 58.74 153.589 57.2534 154.468 56.52C154.793 56.2899 155.144 56.1127 155.513 55.9931C162.421 53.6713 174.719 50.1009 179.157 48.8667C186.695 46.7702 199.583 42.7572 207.065 40.4387C209.002 39.8131 211.002 39.4369 213.031 39.3167L214.771 39.2804C216.57 39.2475 218.274 39.4432 219.802 40.0028C222.93 41.1477 226.128 42.9565 227.956 46.2038C228.29 46.753 228.523 47.3737 228.64 48.0239C228.859 49.5197 228.1 50.9276 227.158 51.8836C224.88 54.1944 219.538 55.2696 216.302 55.8976C212.872 56.4125 209.899 57.0973 206.64 57.567L186.583 58.9401Z" fill="#009688"/>
<path d="M166.384 60.8269C167.748 60.7832 169.113 60.7137 170.484 60.6497C176.175 60.3838 181.653 59.5352 186.583 58.9401L206.64 57.5679C209.9 57.0981 212.873 56.4134 216.303 55.8985C219.538 55.2705 224.881 54.1951 227.159 51.8845C228.1 50.9276 228.859 49.5197 228.64 48.0239C228.523 47.3737 228.29 46.753 227.956 46.2038C227.551 45.489 227.077 44.8293 226.545 44.2387C227.88 46.8959 225.281 48.7414 223.735 49.4582C220.257 51.0668 211.597 52.7828 206.165 53.548C205.395 53.5731 204.818 53.2408 204.155 53.2963C203.521 53.3494 192.831 55.8498 192.152 55.9428C187.396 56.9413 178.374 57.9292 175.069 58.3496C173.539 58.544 168.852 59.2473 164.75 59.6213C164.254 60.0222 163.694 60.4429 163.099 60.8678C164.194 60.8805 165.289 60.8621 166.384 60.8269Z" fill="#D9D9D9"/>
<path d="M187.212 58.4149C184.634 60.7382 183.205 62.0696 180.233 64.4607C178.517 65.8416 177.071 67.4244 174.991 67.8543C174.533 67.949 174.039 67.9819 173.671 68.301C173.303 68.62 173.169 69.3694 173.553 69.713C176.345 71.0021 179.343 69.6407 181.989 68.2905C189.691 64.3609 197.89 60.1099 205.592 56.1803C206.659 55.3975 206.637 54.3758 206.396 53.7732C205.993 53.0373 204.925 53.2401 204.156 53.3045C199.923 53.6591 193.114 55.6631 188.885 57.2427C188.614 57.3439 188.05 57.6416 187.212 58.4156" fill="#009688"/>
<path d="M216.566 43.5826C216.507 43.2721 216.476 43.1925 216.649 42.9283C216.766 42.749 217.152 42.5896 217.325 42.4863C217.904 42.1386 218.441 41.8758 219.021 41.5326C219.56 41.2466 220.013 40.7861 220.329 40.2019C221.159 40.5217 221.975 40.8975 222.773 41.3273C222.062 42.8492 220.753 43.7923 219.433 44.5514C218.794 44.9186 218.132 45.2513 217.504 45.3071C217.435 45.3195 217.364 45.3126 217.295 45.2868C217.227 45.261 217.165 45.217 217.112 45.1585C216.917 44.9342 216.639 43.9864 216.576 43.6328C216.573 43.6159 216.57 43.599 216.566 43.5826Z" fill="#87CCE3"/>
<path d="M198.135 63.6666L198.176 63.6743C199.441 63.9187 200.719 63.8628 201.987 63.8066C202.509 63.7873 203.023 63.6857 203.515 63.5045C204.25 63.228 204.765 63.0369 205.315 62.3652C205.477 62.1535 205.582 61.8884 205.617 61.601C205.759 60.9546 205.647 60.2726 205.53 59.6963C205.432 59.2198 205.213 58.1399 204.67 57.5693C204.554 57.4333 204.413 57.3327 204.259 57.2775C204.104 57.2223 203.943 57.2143 203.79 57.2543L203.107 57.4496C201.001 58.5274 198.867 59.6235 196.724 60.7257C196.92 61.4032 197.118 62.0862 197.315 62.7628C197.347 62.8792 197.385 62.9937 197.429 63.1057C197.48 63.2417 197.558 63.3624 197.657 63.4571C197.8 63.5744 197.965 63.6467 198.135 63.6666Z" fill="#009688"/>
<path d="M204.396 57.3458C204.495 57.4061 204.587 57.4816 204.67 57.5702C205.214 58.1408 205.432 59.2206 205.53 59.6972C205.648 60.2724 205.76 60.9555 205.618 61.6018C205.582 61.8893 205.478 62.1544 205.316 62.366C205.249 62.4472 205.183 62.5212 205.117 62.5895C204.962 62.7087 204.775 62.7622 204.585 62.7416C204.215 62.6868 203.908 62.1589 203.813 61.955C203.6 61.5158 203.441 61.0461 203.339 60.5607C203.192 59.996 203.118 59.4129 203.12 58.8316C203.125 58.4661 203.174 57.628 203.654 57.3349L203.781 57.2578L203.79 57.2559C203.99 57.1967 204.206 57.2287 204.396 57.3458Z" fill="#009688"/>
<path d="M157.242 55.2967C155.902 52.0765 154.642 48.9374 153.359 45.8602C153.318 45.7838 153.295 45.6971 153.292 45.6091C153.289 45.521 153.306 45.435 153.342 45.3599C153.388 45.2865 153.459 45.2394 153.537 45.2289C154.754 45.1277 155.908 45.1719 156.914 45.5974C157.92 46.0229 158.561 46.5438 159.453 47.2565C161.477 48.876 163.401 50.6677 165.21 52.6164L157.242 55.2967Z" fill="#009688"/>
<path d="M197.275 60.993C197.448 61.5887 197.594 62.2084 197.8 62.7908C197.819 62.878 197.861 62.9573 197.919 63.0172C197.978 63.077 198.05 63.1142 198.125 63.1234C198.383 63.1824 198.642 63.2226 198.902 63.2438C199.959 63.3488 201.018 63.3555 202.067 63.2636C202.589 63.2203 203.099 63.1 203.588 62.9057C203.973 62.7797 204.336 62.5799 204.66 62.3139C204.838 62.1781 204.987 61.9962 205.094 61.7811C205.144 61.6339 205.179 61.4795 205.198 61.321C205.251 60.8129 205.212 60.2913 205.083 59.7902C205.01 59.3724 204.895 58.9636 204.741 58.5722C204.578 58.1862 204.304 57.69 203.895 57.7863C203.322 57.921 203.113 56.8573 203.686 56.7226C204.865 56.4451 205.559 57.9036 205.849 59.0342C206.124 60.107 206.339 61.4044 205.874 62.3999C205.617 62.9511 205.092 63.3652 204.614 63.6205C204.101 63.8921 203.56 64.093 203.002 64.2194C202.341 64.3373 201.669 64.3916 200.995 64.3818C200.375 64.3992 199.754 64.3991 199.132 64.3451C198.513 64.2903 197.673 64.2948 197.216 63.6825C196.971 63.3534 196.878 62.8895 196.762 62.4907C196.635 62.0537 196.509 61.6167 196.382 61.1798C196.355 61.0389 196.376 60.8942 196.44 60.7771C196.504 60.66 196.606 60.5799 196.724 60.5542C196.842 60.5326 196.966 60.566 197.068 60.6477C197.171 60.7293 197.245 60.8527 197.275 60.9923L197.275 60.993Z" fill="#211715"/>
<path d="M214.789 38.7427C216.331 38.6892 217.884 38.8826 219.405 39.3177C220.767 39.7411 222.095 40.3319 223.367 41.0802C224.639 41.7977 225.818 42.7393 226.862 43.8708C227.373 44.441 227.832 45.0719 228.231 45.7523C228.701 46.5468 229.068 47.4065 229.129 48.3642C229.229 49.9546 228.381 51.4038 227.416 52.3544C226.57 53.1877 225.536 53.749 224.499 54.2027C222.163 55.2253 219.674 55.7831 217.203 56.2747C215.716 56.5703 214.214 56.7827 212.724 57.0571C211.143 57.3484 209.564 57.654 207.977 57.911C207.566 57.9774 207.156 58.0405 206.745 58.1004C206.166 58.1843 205.953 57.1212 206.535 57.0367C209.647 56.5862 212.719 55.9057 215.826 55.4241C216.966 55.2475 218.099 54.9968 219.223 54.734C220.437 54.4513 221.644 54.1272 222.825 53.7114C223.906 53.3546 224.944 52.857 225.92 52.2275C226.817 51.6227 227.692 50.72 228.06 49.5195C228.28 48.8505 228.264 48.0918 228.014 47.4063C227.717 46.6599 227.323 45.9684 226.845 45.3585C225.959 44.211 224.916 43.2467 223.764 42.5106C222.591 41.7555 221.362 41.1391 220.097 40.671C218.725 40.1546 217.308 39.8712 215.89 39.8297C215.51 39.8142 215.132 39.8121 214.753 39.8183C214.632 39.8037 214.518 39.7338 214.435 39.6236C214.353 39.5135 214.309 39.372 214.313 39.2296C214.32 39.0884 214.374 38.959 214.463 38.8683C214.551 38.7777 214.668 38.7325 214.789 38.7427Z" fill="#211715"/>
<path d="M198.438 43.478C195.666 42.5674 192.876 41.7448 190.069 41.0528C189.384 40.8842 188.699 40.7236 188.013 40.5711C187.306 40.4148 186.58 40.2073 185.866 40.1899C185.596 40.1831 185.327 40.2086 185.064 40.2659C185.004 40.2786 184.943 40.2938 184.884 40.3112C184.893 40.3091 184.719 40.3677 184.798 40.3361C184.771 40.3468 184.742 40.3588 184.716 40.3728C184.674 40.3953 184.578 40.4904 184.671 40.3895C184.611 40.4547 184.735 40.2634 184.659 40.4125C184.631 40.4693 184.593 40.5215 184.561 40.5764C184.498 40.6775 184.442 40.7854 184.395 40.8988C184.378 40.9406 184.365 40.9846 184.357 41.03C184.359 40.9959 184.339 40.9414 184.37 41.0099C184.472 41.1962 184.594 41.3669 184.733 41.5173C185.847 42.9644 186.915 44.459 187.989 45.947C188.382 46.4911 187.717 47.1906 187.324 46.6457C186.289 45.2125 185.26 43.7734 184.19 42.3759C183.926 42.0308 183.613 41.699 183.488 41.2502C183.451 41.0757 183.445 40.896 183.469 40.7225C183.494 40.549 183.55 40.3854 183.632 40.2421C183.737 39.986 183.878 39.7544 184.05 39.5566C184.234 39.3998 184.447 39.2943 184.674 39.2475C185.355 39.0712 186.067 39.0626 186.767 39.2223C187.522 39.3762 188.276 39.5415 189.029 39.7183C190.584 40.0818 192.134 40.4839 193.679 40.9245C195.362 41.4003 197.038 41.9135 198.708 42.4642C198.823 42.5149 198.92 42.6161 198.977 42.746C199.033 42.8758 199.046 43.0238 199.011 43.1583C198.973 43.2907 198.892 43.3979 198.785 43.4574C198.678 43.5169 198.554 43.524 198.438 43.4773L198.438 43.478Z" fill="#211715"/>
<path d="M187.528 58.8269C186.371 59.869 185.22 60.9199 184.051 61.9424C182.802 63.0354 181.516 64.0668 180.243 65.1229C178.906 66.2324 177.622 67.4945 176.031 68.1047C175.634 68.2546 175.226 68.3667 174.81 68.4398C174.501 68.4961 174.053 68.5318 173.864 68.8585C173.807 68.9514 173.778 69.0654 173.781 69.1835C173.783 69.2169 173.791 69.2499 173.806 69.2793C173.8 69.2657 173.796 69.2661 173.782 69.2548C173.72 69.2073 173.893 69.2958 173.912 69.3033C174.265 69.4485 174.628 69.5523 174.995 69.6132C176.549 69.8718 178.098 69.4507 179.525 68.8611C181.118 68.2036 182.649 67.3545 184.192 66.5647C187.528 64.8575 190.861 63.1452 194.193 61.4278C197.516 59.7184 200.84 58.0122 204.166 56.3089C204.568 56.1031 204.971 55.8975 205.373 55.6922C205.903 55.4221 206.343 56.3973 205.812 56.6682C202.372 58.4235 198.935 60.1862 195.501 61.9563C192.041 63.7363 188.58 65.5144 185.119 67.2908C183.509 68.1154 181.912 68.997 180.26 69.7117C178.728 70.3742 177.095 70.8912 175.413 70.746C175.006 70.7086 174.601 70.6303 174.202 70.5122C173.829 70.404 173.354 70.2948 173.101 69.9159C172.557 69.1011 173.012 68.0082 173.694 67.6497C174.108 67.4323 174.568 67.3972 175.011 67.2951C175.411 67.2019 175.8 67.0615 176.173 66.8761C176.924 66.4817 177.634 65.9934 178.291 65.4191C179.674 64.263 181.073 63.1302 182.447 61.9594C183.623 60.9569 184.775 59.9186 185.927 58.8787C186.25 58.5866 186.574 58.2946 186.898 58.0027C186.987 57.9134 187.105 57.87 187.225 57.8817C187.346 57.8933 187.461 57.959 187.546 58.0652C187.629 58.175 187.674 58.3163 187.67 58.4587C187.667 58.601 187.617 58.7331 187.529 58.8266L187.528 58.8269Z" fill="#211715"/>
<path d="M205.373 55.6925C205.628 55.5093 205.837 55.2513 205.981 54.9418C206.006 54.87 206.028 54.7961 206.045 54.7206C206.052 54.694 206.058 54.6663 206.062 54.6388C206.05 54.7118 206.063 54.6249 206.064 54.6139C206.07 54.5445 206.073 54.4746 206.072 54.4045C206.073 54.3715 206.071 54.3356 206.068 54.3031C206.078 54.4225 206.06 54.2662 206.057 54.2531C206.047 54.1997 206.035 54.1466 206.023 54.0932C206.02 54.0752 205.99 53.9831 206.014 54.0552C206.037 54.1274 206.01 54.0373 206 54.0227C205.947 53.9561 205.882 53.9031 205.811 53.8677C205.542 53.7704 205.262 53.737 204.988 53.7696C203.598 53.8594 202.218 54.0508 200.857 54.3426C197.694 54.9917 194.573 55.8409 191.506 56.8866C190.74 57.142 189.977 57.4091 189.218 57.6878C189.18 57.7021 189.142 57.7165 189.103 57.7304L189.068 57.7431C189.025 57.761 188.982 57.7794 188.94 57.7996C188.822 57.8553 188.708 57.9201 188.597 57.9891C188.219 58.2306 187.862 58.5105 187.528 58.8258C187.076 59.2399 186.442 58.4177 186.896 58.002C187.415 57.4815 188.004 57.0633 188.641 56.7622C189.361 56.4693 190.101 56.2279 190.834 55.979C192.471 55.4224 194.122 54.9137 195.785 54.4527C197.472 53.9848 199.171 53.563 200.888 53.2322C201.644 53.0867 202.404 52.9589 203.167 52.8641C203.884 52.7463 204.609 52.6894 205.339 52.6939C205.742 52.6881 206.143 52.8377 206.481 53.12C206.62 53.2566 206.735 53.424 206.819 53.6118C206.903 53.7995 206.954 54.0035 206.969 54.211C207.084 55.3031 206.534 56.1212 205.811 56.6677C205.704 56.7282 205.578 56.7352 205.462 56.6873C205.345 56.6393 205.247 56.5402 205.188 56.4114C205.133 56.2816 205.121 56.1343 205.155 56.0003C205.189 55.8662 205.267 55.7557 205.371 55.6918L205.373 55.6925Z" fill="#211715"/>
<path d="M220.719 40.5133C220.226 41.486 219.358 41.9691 218.512 42.4303C218.106 42.6516 217.707 42.8879 217.3 43.1046C217.201 43.1568 217.056 43.2723 217 43.2987L216.97 43.3533L216.977 43.3286L216.98 43.2821L216.978 43.3269C216.99 43.3222 216.967 43.243 216.983 43.3345C216.996 43.4032 217.009 43.472 217.023 43.5404C217.088 43.8727 217.183 44.198 217.304 44.5112C217.334 44.5881 217.367 44.6622 217.4 44.7374C217.41 44.7585 217.433 44.8379 217.401 44.7491C217.405 44.7609 217.447 44.8048 217.445 44.8103C217.461 44.7289 217.268 44.7948 217.447 44.7726C217.565 44.758 217.681 44.7364 217.796 44.7079C218.666 44.4907 219.499 43.936 220.249 43.4146C221.073 42.8831 221.771 42.1287 222.289 41.2096C222.593 40.6327 223.372 41.2527 223.069 41.8291C222.517 42.8138 221.782 43.6327 220.916 44.2284C220.056 44.8609 219.089 45.4708 218.085 45.7494C217.63 45.8761 217.102 45.9426 216.746 45.4641C216.485 45.1126 216.354 44.5914 216.235 44.1639C216.129 43.7859 215.999 43.3366 216.1 42.9539C216.234 42.4507 216.647 42.2471 217.019 42.0456C217.589 41.7389 218.158 41.4205 218.719 41.0928C219.219 40.8399 219.641 40.4252 219.94 39.8944C220.235 39.3111 221.015 39.9321 220.719 40.5139L220.719 40.5133Z" fill="#211715"/>
<path d="M213.135 39.8486C209.921 40.006 206.884 41.0593 203.827 42.0065C200.94 42.9013 198.052 43.7921 195.163 44.679C192.136 45.6067 189.106 46.5229 186.074 47.4275C183.604 48.1613 181.13 48.8753 178.651 49.5695C176.448 50.1877 174.248 50.8201 172.051 51.4667C169.212 52.2974 166.377 53.1442 163.546 54.0071C160.931 54.8069 158.302 55.5844 155.717 56.492C155.308 56.6354 154.458 56.8314 154.615 57.51C154.745 58.0716 155.161 58.6196 155.54 58.9868C156.13 59.5598 156.878 59.7814 157.604 59.9044C158.563 60.067 159.531 60.1562 160.493 60.2235C164.434 60.4996 168.396 60.275 172.308 60.0063C176.178 59.7404 180.019 59.2319 183.86 58.7372C184.733 58.6249 185.605 58.5153 186.478 58.4085C187.058 58.3383 187.272 59.4015 186.687 59.4722C182.857 59.9356 179.039 60.4894 175.195 60.8507C173.154 61.0427 171.107 61.1583 169.056 61.2545C167.052 61.3483 165.045 61.4318 163.032 61.4036C162.038 61.3897 161.042 61.3485 160.047 61.2688C159.091 61.214 158.136 61.0931 157.187 60.9066C155.814 60.6037 154.423 59.7099 153.842 58.0983C153.574 57.3542 153.621 56.5614 154.182 56.0858C154.751 55.6027 155.509 55.4266 156.183 55.2041C157.478 54.7758 158.776 54.3589 160.077 53.9532C162.976 53.0434 165.881 52.1596 168.794 51.3018C171.37 50.5376 173.949 49.7861 176.532 49.0475C178.746 48.4153 180.965 47.8021 183.176 47.1566C186.19 46.277 189.197 45.3771 192.2 44.4571C195.259 43.5262 198.317 42.5868 201.373 41.639C202.731 41.2183 204.089 40.7971 205.446 40.3756C207.038 39.8435 208.656 39.4125 210.296 39.0844C211.165 38.929 212.043 38.8288 212.926 38.7841C213.045 38.764 213.167 38.798 213.27 38.8794C213.372 38.9608 213.447 39.0833 213.478 39.2222C213.528 39.4799 213.384 39.8358 213.136 39.8478L213.135 39.8486Z" fill="#211715"/>
<path d="M165.418 59.0585C163.296 60.9272 159.275 63.506 156.782 64.6306C156.265 64.8634 155.604 65.0463 155.186 64.5716C155.102 64.4846 155.042 64.3695 155.015 64.2432C154.989 64.117 154.997 63.9862 155.039 63.8702C155.098 63.7652 155.176 63.6779 155.269 63.6142C156.796 62.3707 157.356 61.9916 158.405 60.1882L158.694 59.5821L165.418 59.0585Z" fill="#009688"/>
<path d="M158.796 60.4987C158.242 61.4859 157.552 62.3531 156.752 63.0674C156.568 63.2266 156.381 63.3807 156.193 63.5338L155.842 63.8189C155.763 63.8827 155.455 64.0506 155.434 64.1651C155.45 64.0794 155.492 64.195 155.521 64.2219C155.571 64.266 155.629 64.2969 155.689 64.3122C155.925 64.35 156.162 64.3179 156.378 64.219C157.321 63.8794 158.226 63.3194 159.102 62.8108C160.141 62.2081 161.161 61.5643 162.161 60.8795C163.179 60.201 164.161 59.4556 165.103 58.6466C165.193 58.5575 165.31 58.5143 165.431 58.5259C165.552 58.5376 165.667 58.6031 165.752 58.7091C165.835 58.8188 165.879 58.9601 165.876 59.1025C165.873 59.2449 165.822 59.377 165.735 59.4704C163.811 61.1592 161.67 62.5542 159.51 63.8048C158.994 64.1035 158.473 64.3916 157.945 64.6619C157.451 64.9442 156.934 65.1713 156.4 65.3403C155.796 65.4989 155.067 65.3786 154.698 64.6807C154.592 64.4905 154.537 64.2695 154.542 64.0484C154.546 63.8273 154.609 63.6172 154.722 63.4473C154.947 63.1855 155.2 62.9607 155.477 62.7786C155.957 62.4084 156.412 61.9988 156.841 61.5528C157.284 61.0481 157.678 60.4871 158.017 59.879C158.343 59.3216 159.123 59.9396 158.796 60.4985L158.796 60.4987Z" fill="#211715"/>
<path d="M156.839 55.5286C156.088 53.7249 155.349 51.9149 154.609 50.1056C154.243 49.2104 153.876 48.3158 153.507 47.4217C153.325 46.9794 153.125 46.5412 152.955 46.0922C152.797 45.6722 152.769 45.1908 153.079 44.8845C153.38 44.5874 153.905 44.6602 154.284 44.6498C154.657 44.6373 155.03 44.6493 155.404 44.6857C156.125 44.756 156.837 44.9656 157.512 45.3059C158.141 45.6399 158.743 46.043 159.312 46.5096C159.978 47.039 160.638 47.5789 161.285 48.1408C162.764 49.4269 164.186 50.8047 165.543 52.2679C165.626 52.3776 165.671 52.519 165.668 52.6615C165.665 52.804 165.614 52.9361 165.526 53.0293C165.437 53.119 165.319 53.1625 165.199 53.1509C165.078 53.1392 164.963 53.0733 164.878 52.9668C163.768 51.7733 162.615 50.6408 161.419 49.5692C160.314 48.5401 159.156 47.5948 157.953 46.7398C157.413 46.3646 156.832 46.0854 156.231 45.9118C155.589 45.7553 154.939 45.6921 154.293 45.7237C154.134 45.7276 153.975 45.7358 153.816 45.747L153.729 45.7536C153.597 45.788 153.604 45.7412 153.75 45.6133C153.776 45.627 153.814 45.7502 153.804 45.7265C153.984 46.1515 154.158 46.5801 154.335 47.0073C154.663 47.8012 154.989 48.596 155.314 49.3917C156.089 51.2841 156.861 53.178 157.646 55.0647C157.911 55.7013 157.106 56.1664 156.84 55.5283L156.839 55.5286Z" fill="#211715"/>
<path d="M218.504 41.9312C218.944 42.594 219.338 43.2965 219.681 44.0311C219.71 44.0952 219.728 44.1646 219.734 44.2355C219.741 44.3063 219.735 44.3772 219.718 44.444C219.701 44.5108 219.673 44.5723 219.635 44.6249C219.597 44.6776 219.55 44.7203 219.497 44.7508C219.445 44.7812 219.387 44.7987 219.327 44.8023C219.267 44.8059 219.206 44.7956 219.148 44.7718C219.091 44.748 219.037 44.7113 218.99 44.6638C218.943 44.6162 218.904 44.5588 218.875 44.4947C218.722 44.1437 218.549 43.8037 218.359 43.477C218.335 43.4359 218.312 43.3906 218.285 43.3514C218.367 43.4685 218.296 43.3687 218.281 43.3445C218.231 43.2615 218.181 43.179 218.13 43.0971C218.033 42.9409 217.935 42.7856 217.838 42.6299C217.757 42.5165 217.712 42.374 217.713 42.2296C217.716 42.1238 217.746 42.0232 217.799 41.9406C217.852 41.858 217.925 41.7969 218.009 41.765C218.094 41.7332 218.186 41.7319 218.274 41.7615C218.362 41.7911 218.442 41.8501 218.504 41.9312Z" fill="#211715"/>
<path d="M221.103 43.3976C220.793 43.1051 220.479 42.8172 220.152 42.5538C219.997 42.4292 219.838 42.3101 219.677 42.1985C219.59 42.1397 219.503 42.0823 219.414 42.0264C219.392 42.0133 219.371 42.001 219.35 41.9866C219.388 42.0122 219.429 42.0332 219.366 41.9965C219.317 41.9679 219.269 41.9401 219.219 41.9119C219.107 41.8592 219.012 41.7617 218.952 41.6371C218.908 41.5401 218.89 41.4315 218.898 41.3252C218.907 41.219 218.942 41.1199 219 41.0406C219.057 40.9613 219.135 40.9054 219.222 40.8802C219.31 40.8549 219.403 40.8613 219.49 40.8986C219.879 41.114 220.255 41.3651 220.613 41.6494C220.949 41.9178 221.269 42.2125 221.587 42.5119C221.688 42.597 221.761 42.7214 221.791 42.8612C221.812 42.9666 221.806 43.0751 221.774 43.1731C221.743 43.2711 221.686 43.3542 221.612 43.4117C221.539 43.4692 221.451 43.4986 221.36 43.4962C221.269 43.4938 221.179 43.4597 221.102 43.3981L221.103 43.3976Z" fill="#211715"/>
<path d="M211.84 48.4633C211.761 48.1079 211.684 47.7519 211.607 47.3961C211.483 46.8222 211.276 46.1789 211.615 45.6771C211.798 45.4149 212.06 45.2466 212.352 45.2043L213.186 45.0204C213.326 44.9795 213.474 44.9723 213.62 44.9991C213.765 45.0259 213.907 45.0862 214.036 45.1766C214.155 45.2691 214.258 45.388 214.339 45.5262C214.42 45.6643 214.477 45.8188 214.507 45.9804C214.634 46.5687 214.763 47.158 214.87 47.7503C214.897 47.8913 214.877 48.0365 214.813 48.1538C214.749 48.2711 214.646 48.351 214.528 48.3759C214.409 48.4007 214.285 48.3686 214.181 48.2864C214.078 48.2042 214.004 48.0788 213.976 47.9378C213.895 47.4867 213.798 47.0384 213.703 46.5903C213.678 46.4698 213.652 46.3494 213.627 46.2289C213.622 46.2016 213.616 46.1746 213.61 46.1475C213.603 46.115 213.572 46.0652 213.609 46.1275C213.648 46.1947 213.611 46.1379 213.6 46.1147C213.554 46.0091 213.604 46.1333 213.614 46.1292C213.614 46.1292 213.579 46.0831 213.575 46.0766C213.521 45.9983 213.592 46.1074 213.6 46.1004C213.6 46.1004 213.544 46.0577 213.539 46.0525C213.5 46.0084 213.62 46.0816 213.568 46.0712C213.549 46.0665 213.53 46.0591 213.512 46.0492C213.456 46.0206 213.603 46.0763 213.543 46.06C213.496 46.0469 213.498 46.0842 213.531 46.0534C213.572 46.0498 213.573 46.0503 213.532 46.0546L213.503 46.0609C213.26 46.1059 213.017 46.1681 212.775 46.2215C212.658 46.2572 212.539 46.2835 212.418 46.3004C212.357 46.3037 212.499 46.2571 212.445 46.2874C212.428 46.2975 212.409 46.3055 212.392 46.3163L212.378 46.3243C212.345 46.3479 212.345 46.3479 212.378 46.3243C212.41 46.2987 212.411 46.2997 212.381 46.3275L212.36 46.3506C212.291 46.4165 212.389 46.2803 212.37 46.3379C212.362 46.3585 212.352 46.3776 212.34 46.3948C212.306 46.4444 212.36 46.3006 212.353 46.3645C212.35 46.3871 212.344 46.4089 212.336 46.4295C212.313 46.4896 212.34 46.3268 212.341 46.3951C212.342 46.4185 212.341 46.4418 212.339 46.4649C212.333 46.5353 212.319 46.3573 212.336 46.4282C212.344 46.4652 212.35 46.5033 212.358 46.5408C212.407 46.7703 212.456 46.9997 212.506 47.2289C212.582 47.578 212.657 47.9273 212.735 48.276C212.761 48.4169 212.74 48.5614 212.676 48.6785C212.612 48.7955 212.51 48.8756 212.393 48.9016C212.274 48.9236 212.151 48.8903 212.048 48.8086C211.945 48.7269 211.871 48.6032 211.841 48.4635L211.84 48.4633Z" fill="#211715"/>
<path d="M203.874 57.8226C203.655 57.9698 203.601 58.4031 203.585 58.7069C203.567 59.2135 203.617 59.7247 203.733 60.2218C203.832 60.7962 204.019 61.3501 204.286 61.8556C204.362 61.9798 204.454 62.0896 204.559 62.1808C204.587 62.1982 204.617 62.2085 204.647 62.2111C204.678 62.2136 204.708 62.2083 204.736 62.1955C204.779 62.1791 204.82 62.1575 204.859 62.1309C204.887 62.1096 204.968 61.9928 204.898 62.1045C205.237 61.5617 206.019 62.1779 205.678 62.724C205.476 63.0299 205.179 63.2272 204.846 63.2756C204.667 63.2984 204.484 63.2718 204.311 63.1978C204.138 63.1237 203.979 63.0044 203.848 62.8491C203.362 62.3281 203.097 61.5138 202.926 60.7991C202.629 59.561 202.33 57.5855 203.434 56.8469C203.936 56.5108 204.372 57.489 203.874 57.8226L203.874 57.8226Z" fill="#211715"/>
<path d="M208.901 46.8384C208.992 46.8149 209.087 46.8136 209.181 46.8345C209.275 46.8554 209.366 46.8981 209.447 46.9602C209.529 47.0222 209.6 47.1023 209.656 47.1955C209.712 47.2888 209.752 47.3935 209.774 47.5032C209.798 47.6137 209.804 47.7275 209.79 47.838C209.777 47.9485 209.744 48.0535 209.695 48.147C209.646 48.2404 209.581 48.3204 209.504 48.3824C209.428 48.4443 209.34 48.487 209.247 48.5079C209.154 48.5289 209.058 48.5276 208.963 48.5043C208.868 48.481 208.778 48.436 208.696 48.372C208.614 48.308 208.543 48.2262 208.487 48.1314C208.431 48.0367 208.391 47.9307 208.369 47.8198C208.345 47.7104 208.34 47.5977 208.354 47.4886C208.369 47.3794 208.401 47.2759 208.451 47.1843C208.501 47.0927 208.566 47.0149 208.643 46.9555C208.721 46.896 208.808 46.8562 208.901 46.8384Z" fill="#211715"/>
<path d="M206.234 47.4327C206.325 47.4093 206.42 47.408 206.514 47.4289C206.608 47.4499 206.699 47.4927 206.78 47.5548C206.862 47.6168 206.933 47.6969 206.989 47.7902C207.045 47.8835 207.085 47.9881 207.107 48.0978C207.153 48.3199 207.123 48.5496 207.024 48.7363C206.925 48.923 206.764 49.0514 206.578 49.0934C206.392 49.1353 206.194 49.0873 206.03 48.9599C205.866 48.8325 205.748 48.6362 205.702 48.4141C205.678 48.3047 205.673 48.192 205.687 48.0828C205.701 47.9736 205.734 47.8702 205.784 47.7786C205.834 47.687 205.899 47.6091 205.976 47.5497C206.054 47.4903 206.141 47.4505 206.234 47.4327Z" fill="#211715"/>
<path d="M203.566 48.0343C203.658 48.0108 203.753 48.0095 203.847 48.0304C203.941 48.0514 204.031 48.0941 204.113 48.1561C204.194 48.2182 204.265 48.2982 204.321 48.3915C204.378 48.4848 204.418 48.5895 204.44 48.6992C204.464 48.8097 204.469 48.9235 204.456 49.034C204.442 49.1445 204.41 49.2495 204.361 49.343C204.312 49.4364 204.247 49.5165 204.17 49.5784C204.093 49.6404 204.005 49.683 203.913 49.704C203.82 49.7249 203.723 49.7236 203.628 49.7003C203.534 49.6769 203.443 49.6319 203.361 49.5679C203.28 49.5039 203.209 49.4221 203.152 49.3273C203.096 49.2325 203.056 49.1265 203.034 49.0155C203.011 48.9061 203.006 48.7935 203.02 48.6843C203.034 48.5752 203.067 48.4717 203.117 48.3801C203.166 48.2885 203.232 48.2107 203.309 48.1513C203.386 48.0919 203.474 48.0521 203.566 48.0343Z" fill="#211715"/>
<path d="M200.899 48.6307C200.991 48.6072 201.086 48.6059 201.18 48.6269C201.274 48.6478 201.364 48.6906 201.446 48.7526C201.527 48.8146 201.598 48.8947 201.654 48.9879C201.711 49.0812 201.751 49.1858 201.773 49.2956C201.797 49.4061 201.802 49.5199 201.789 49.6304C201.775 49.7409 201.743 49.8459 201.694 49.9393C201.645 50.0327 201.58 50.1128 201.503 50.1747C201.426 50.2367 201.339 50.2794 201.246 50.3003C201.153 50.3212 201.056 50.32 200.962 50.2966C200.867 50.2733 200.776 50.2283 200.694 50.1643C200.613 50.1003 200.542 50.0186 200.486 49.9238C200.429 49.829 200.389 49.7231 200.367 49.6121C200.344 49.5027 200.339 49.39 200.353 49.2809C200.367 49.1717 200.4 49.0682 200.45 48.9766C200.499 48.885 200.565 48.8071 200.642 48.7477C200.719 48.6883 200.807 48.6485 200.899 48.6307Z" fill="#211715"/>
<path d="M185.353 54.2022C185.277 53.8609 185.203 53.5183 185.129 53.1775C185.009 52.6207 184.811 51.9983 185.139 51.5113C185.317 51.2549 185.573 51.0902 185.858 51.0484L186.659 50.8727C186.796 50.8329 186.94 50.826 187.082 50.8524C187.224 50.8787 187.363 50.9378 187.488 51.0262C187.605 51.1167 187.705 51.2329 187.785 51.3678C187.864 51.5028 187.92 51.6538 187.949 51.8116C188.071 52.3764 188.194 52.9423 188.297 53.511C188.325 53.652 188.304 53.7972 188.24 53.9145C188.176 54.0318 188.073 54.1117 187.955 54.1366C187.836 54.1615 187.712 54.1293 187.608 54.0471C187.505 53.965 187.431 53.8396 187.404 53.6985C187.325 53.2654 187.232 52.8346 187.142 52.4051C187.117 52.2893 187.093 52.1736 187.068 52.0579C187.063 52.032 187.058 52.0059 187.052 51.98C187.045 51.954 187.02 51.8854 187.052 51.9636C187.083 52.0418 187.054 51.9733 187.045 51.954C187.001 51.8536 187.043 51.9725 187.06 51.9724C187.059 51.9726 187.028 51.9287 187.023 51.9221C186.972 51.8483 187.04 51.9526 187.051 51.9485C187.031 51.9349 187.011 51.9196 186.993 51.9026C186.952 51.8591 187.076 51.934 187.024 51.9233C187.005 51.9184 186.988 51.9113 186.971 51.9019C186.915 51.874 187.064 51.9285 187.005 51.9136C186.972 51.9055 186.941 51.9303 186.996 51.9071C187.064 51.8785 186.993 51.9095 186.971 51.9137C186.737 51.957 186.505 52.0166 186.272 52.0677C186.16 52.1012 186.045 52.1266 185.929 52.1435C185.869 52.1476 186.013 52.0994 185.961 52.1294C185.943 52.1391 185.925 52.1467 185.908 52.1573L185.895 52.165C185.863 52.1882 185.863 52.1874 185.897 52.1626C185.929 52.1364 185.931 52.1371 185.901 52.1643L185.881 52.1863C185.813 52.251 185.914 52.1127 185.893 52.1703C185.886 52.1899 185.876 52.2082 185.864 52.2248C185.831 52.2743 185.887 52.1278 185.879 52.1909C185.875 52.2125 185.87 52.2335 185.863 52.2534C185.84 52.3131 185.868 52.1471 185.868 52.2148C185.869 52.2375 185.868 52.2601 185.866 52.2826C185.861 52.353 185.846 52.1714 185.862 52.2416C185.87 52.2771 185.877 52.3137 185.884 52.3496C185.931 52.5704 185.978 52.7906 186.026 53.0103C186.099 53.3455 186.171 53.6808 186.246 54.0155C186.272 54.1564 186.251 54.301 186.187 54.418C186.123 54.5351 186.021 54.6152 185.903 54.6411C185.785 54.6631 185.662 54.6297 185.559 54.5481C185.456 54.4664 185.382 54.3427 185.352 54.203L185.353 54.2022Z" fill="#211715"/>
<path d="M182.388 52.6692C182.475 52.6467 182.567 52.6455 182.657 52.6656C182.747 52.6857 182.834 52.7268 182.912 52.7864C182.99 52.846 183.059 52.9228 183.112 53.0124C183.166 53.1019 183.205 53.2024 183.226 53.3077C183.248 53.4133 183.252 53.5218 183.239 53.6269C183.225 53.7321 183.194 53.8319 183.146 53.9207C183.099 54.0094 183.037 54.0854 182.964 54.1442C182.89 54.203 182.807 54.2436 182.718 54.2635C182.629 54.2835 182.537 54.2824 182.447 54.2604C182.357 54.2384 182.27 54.1959 182.192 54.1354C182.114 54.0748 182.046 53.9974 181.992 53.9074C181.938 53.8175 181.898 53.7169 181.877 53.6113C181.854 53.5063 181.849 53.3981 181.863 53.2933C181.877 53.1885 181.908 53.0892 181.956 53.0013C182.004 52.9133 182.066 52.8386 182.141 52.7816C182.215 52.7245 182.299 52.6863 182.388 52.6692Z" fill="#211715"/>
<path d="M179.72 53.2647C179.808 53.2421 179.899 53.2409 179.99 53.261C180.08 53.2811 180.166 53.3222 180.245 53.3817C180.323 53.4413 180.391 53.5181 180.445 53.6077C180.499 53.6972 180.538 53.7976 180.559 53.9029C180.581 54.0085 180.585 54.117 180.571 54.2222C180.557 54.3274 180.526 54.4272 180.479 54.516C180.432 54.6047 180.37 54.6807 180.296 54.7395C180.223 54.7984 180.139 54.8389 180.051 54.8589C179.962 54.8788 179.87 54.8778 179.78 54.8558C179.689 54.8338 179.603 54.7913 179.525 54.7308C179.447 54.6702 179.378 54.5928 179.324 54.5029C179.27 54.413 179.231 54.3124 179.209 54.2068C179.187 54.1017 179.182 53.9936 179.195 53.8888C179.209 53.7839 179.241 53.6846 179.288 53.5967C179.336 53.5087 179.399 53.434 179.473 53.377C179.547 53.3199 179.631 53.2817 179.72 53.2647Z" fill="#211715"/>
<path d="M177.054 53.8653C177.142 53.8427 177.233 53.8415 177.323 53.8616C177.414 53.8817 177.5 53.9227 177.579 53.9823C177.657 54.0418 177.725 54.1187 177.779 54.2082C177.833 54.2978 177.871 54.3982 177.892 54.5036C177.916 54.6097 177.921 54.7189 177.908 54.825C177.895 54.9312 177.864 55.032 177.817 55.1217C177.77 55.2115 177.707 55.2883 177.634 55.3478C177.56 55.4073 177.476 55.4483 177.386 55.4684C177.297 55.4885 177.204 55.4873 177.114 55.4649C177.023 55.4424 176.936 55.3992 176.857 55.3377C176.779 55.2763 176.711 55.1977 176.657 55.1067C176.603 55.0156 176.564 54.9139 176.543 54.8074C176.521 54.7023 176.516 54.5942 176.529 54.4894C176.543 54.3846 176.575 54.2852 176.622 54.1973C176.67 54.1094 176.733 54.0346 176.807 53.9776C176.881 53.9206 176.965 53.8824 177.054 53.8653Z" fill="#211715"/>
<path d="M174.386 54.4617C174.474 54.4392 174.565 54.4379 174.656 54.458C174.746 54.4782 174.833 54.5192 174.911 54.5788C174.989 54.6384 175.057 54.7152 175.111 54.8048C175.165 54.8944 175.204 54.9948 175.225 55.1002C175.247 55.2058 175.251 55.3143 175.237 55.4194C175.223 55.5246 175.192 55.6244 175.145 55.7132C175.098 55.8019 175.036 55.8779 174.962 55.9367C174.889 55.9955 174.805 56.0361 174.717 56.056C174.628 56.0759 174.536 56.0749 174.446 56.0529C174.355 56.0309 174.269 55.9884 174.191 55.9279C174.112 55.8673 174.044 55.7898 173.99 55.6999C173.936 55.61 173.897 55.5094 173.875 55.4038C173.853 55.2988 173.848 55.1906 173.862 55.0858C173.875 54.981 173.907 54.8817 173.954 54.7937C174.002 54.7058 174.065 54.6311 174.139 54.5741C174.213 54.517 174.297 54.4788 174.386 54.4617Z" fill="#211715"/>
<path d="M197.252 63.5092C196.842 63.4999 196.437 63.3478 196.088 63.072C195.713 62.7443 195.409 62.3139 195.206 61.8215C195.158 61.7136 195.146 61.5898 195.175 61.4773C195.204 61.3649 195.27 61.2729 195.359 61.2217C195.448 61.1704 195.553 61.1641 195.65 61.2042C195.747 61.2442 195.829 61.3273 195.878 61.4352C195.921 61.5407 195.969 61.6434 196.022 61.7427C196.036 61.768 196.05 61.7928 196.064 61.8181C196.091 61.8665 196.014 61.7383 196.057 61.8055C196.088 61.8524 196.117 61.8994 196.15 61.9451C196.21 62.0302 196.274 62.1112 196.341 62.1877C196.356 62.204 196.371 62.2196 196.385 62.2359C196.444 62.3017 196.324 62.1764 196.381 62.2322C196.417 62.2673 196.453 62.302 196.491 62.3346C196.515 62.3551 196.538 62.3749 196.564 62.3926C196.577 62.4026 196.591 62.4117 196.605 62.4212C196.66 62.4589 196.581 62.411 196.571 62.4013C196.642 62.451 196.718 62.4881 196.797 62.5113C196.837 62.5274 196.878 62.5419 196.919 62.5551C196.931 62.559 196.968 62.5619 196.977 62.5729C196.918 62.5578 196.91 62.5555 196.951 62.5659L196.975 62.5716C197.076 62.5946 197.179 62.6084 197.281 62.613C197.382 62.625 197.478 62.6831 197.547 62.775C197.615 62.8668 197.652 62.9849 197.649 63.1036C197.643 63.2215 197.598 63.3296 197.525 63.4053C197.451 63.481 197.353 63.5185 197.252 63.51L197.252 63.5092Z" fill="#211715"/>
</g>
<defs>
<filter id="filter0_d_314_404" x="35.5586" y="118.934" width="26.7695" height="31.4965" filterUnits="userSpaceOnUse" color-interpolation-filters="sRGB">
<feFlood flood-opacity="0" result="BackgroundImageFix"/>
<feColorMatrix in="SourceAlpha" type="matrix" values="0 0 0 0 0 0 0 0 0 0 0 0 0 0 0 0 0 0 127 0" result="hardAlpha"/>
<feOffset dy="4"/>
<feGaussianBlur stdDeviation="2"/>
<feComposite in2="hardAlpha" operator="out"/>
<feColorMatrix type="matrix" values="0 0 0 0 0 0 0 0 0 0 0 0 0 0 0 0 0 0 0.25 0"/>
<feBlend mode="normal" in2="BackgroundImageFix" result="effect1_dropShadow_314_404"/>
<feBlend mode="normal" in="SourceGraphic" in2="effect1_dropShadow_314_404" result="shape"/>
</filter>
<clipPath id="clip0_314_404">
<rect width="167" height="180" fill="white" transform="translate(100 64)"/>
</clipPath>
<clipPath id="clip1_314_404">
<rect width="76.2837" height="90.5954" fill="white" transform="matrix(-0.978669 0.205443 0.192974 0.981204 219.656 0)"/>
</clipPath>
</defs>
</svg>
